<?xml version="1.0" encoding="UTF-8"?>
<svg width="34px" height="34px" viewBox="0 0 34 34" version="1.1" xmlns="http://www.w3.org/2000/svg" xmlns:xlink="http://www.w3.org/1999/xlink">
    <!-- Generator: Sketch 49 (51002) - http://www.bohemiancoding.com/sketch -->
    <title>Twitter_White</title>
    <desc>Created with Sketch.</desc>
    <defs></defs>
    <g id="highfidelity" stroke="none" stroke-width="1" fill="none" fill-rule="evenodd">
        <g id="desktop-HD" transform="translate(-1256.000000, -4297.000000)" fill="#FFFFFF">
            <g id="footer" transform="translate(0.000000, 4252.000000)">
                <g id="Group-5-Copy-2" transform="translate(1192.000000, 45.000000)">
                    <g id="Twitter" transform="translate(64.000000, 0.000000)">
                        <path d="M0,17 C0,7.61115879 7.61115879,0 17,0 C26.3888412,0 34,7.61115879 34,17 C34,26.3888412 26.3888412,34 17,34 C7.61115879,34 0,26.3888412 0,17 Z M16.4908519,13.8178129 L16.5265253,14.4060513 L15.9319679,14.3340221 C13.7677788,14.0579102 11.8770862,13.1215308 10.2717811,11.5488936 L9.48696533,10.7685774 L9.28481581,11.3448109 C8.85673446,12.6293314 9.13023088,13.985881 10.022067,14.8982507 C10.497713,15.402455 10.3906926,15.4744842 9.57020337,15.1743626 C9.28481581,15.0783237 9.03510169,15.0062945 9.01131939,15.0423091 C8.92808135,15.1263432 9.21346892,16.2187858 9.43940074,16.6509609 C9.7485706,17.2512041 10.3788015,17.8394425 11.0684881,18.1875836 L11.6511544,18.4636954 L10.9614678,18.4757003 C10.2955634,18.4757003 10.2717811,18.4877052 10.343128,18.7398073 C10.580951,19.5201235 11.5203517,20.3484591 12.5667728,20.7086051 L13.304024,20.9607072 L12.661902,21.3448629 C11.7106101,21.8970866 10.5928422,22.2092131 9.47507419,22.2332228 C8.9399725,22.2452277 8.5,22.2932472 8.5,22.3292618 C8.5,22.4493104 9.95072013,23.1215828 10.7949917,23.3856898 C13.3278063,24.166006 16.3362669,23.8298698 18.5955852,22.4973299 C20.2008902,21.5489456 21.8061953,19.6641819 22.5553376,17.8394425 C22.9596367,16.8670485 23.3639357,15.0903286 23.3639357,14.2379832 C23.3639357,13.6857594 23.3996092,13.6137302 24.0655135,12.9534627 C24.4579214,12.5693071 24.826547,12.1491368 24.8978939,12.0290882 C25.0168054,11.8009957 25.0049143,11.8009957 24.3984657,12.0050784 C23.387718,12.3652244 23.2450243,12.3172049 23.7444525,11.776986 C24.1130781,11.3928303 24.5530506,10.6965482 24.5530506,10.4924655 C24.5530506,10.4564509 24.3746834,10.5164752 24.1725339,10.624519 C23.9584932,10.7445677 23.4828472,10.9246406 23.1261128,11.0326844 L22.4839908,11.2367671 L21.9013245,10.8406066 C21.5802635,10.624519 21.1283998,10.3844217 20.8905768,10.3123926 C20.2841283,10.1443245 19.3566187,10.1683342 18.8096258,10.360412 C17.3232323,10.9006309 16.3838315,12.2931952 16.4908519,13.8178129 Z" id="Combined-Shape"></path>
                    </g>
                </g>
            </g>
        </g>
    </g>
</svg>