<?xml version="1.0" encoding="UTF-8"?>
<svg width="34px" height="34px" viewBox="0 0 34 34" version="1.1" xmlns="http://www.w3.org/2000/svg" xmlns:xlink="http://www.w3.org/1999/xlink">
    <!-- Generator: sketchtool 49 (51002) - http://www.bohemiancoding.com/sketch -->
    <title>70FEB18A-F577-4402-8371-CEA0E50EE436_White</title>
    <desc>Created with sketchtool.</desc>
    <defs></defs>
    <g id="highfidelity" stroke="none" stroke-width="1" fill="none" fill-rule="evenodd">
        <g id="desktop-HD" transform="translate(-1192.000000, -21.000000)" fill="#FFFFFF">
            <g id="header">
                <g id="Group-5-Copy-2" transform="translate(1192.000000, 21.000000)">
                    <g id="Facebook">
                        <path d="M0,17 C0,7.61115879 7.61115879,0 17,0 C26.3888412,0 34,7.61115879 34,17 C34,26.3888412 26.3888412,34 17,34 C7.61115879,34 0,26.3888412 0,17 Z M18.2052682,26.4289627 L18.2052682,17.1800651 L20.7583684,17.1800651 L21.0967093,13.9928438 L18.2052682,13.9928438 L18.2096059,12.3976089 C18.2096059,11.5663325 18.2885883,11.1209156 19.4825413,11.1209156 L21.0786355,11.1209156 L21.0786355,7.93333333 L18.5251739,7.93333333 C15.4580557,7.93333333 14.3785097,9.47947857 14.3785097,12.0796087 L14.3785097,13.9932048 L12.4666667,13.9932048 L12.4666667,17.1804261 L14.3785097,17.1804261 L14.3785097,26.4289627 L18.2052682,26.4289627 Z" id="Combined-Shape"></path>
                    </g>
                </g>
            </g>
        </g>
    </g>
</svg>